<svg version="1.1" id="Layer_1" xmlns="http://www.w3.org/2000/svg" x="0" y="0" width="700" height="800" xml:space="preserve">
  <style>
    .st0{fill:#DDDDDD;stroke:#BBBBBB;stroke-width:1.5;}
  </style>
  <path id="zona-0013" class="st0" d="M450 336l-3-1-3 2h-2l-3 1-2 1-1-3-1 1-1 2-3-1-3-4-2-6h-18l-1 3h-2l-2-2h-1v2l1 4-1 3-2 1v1l-1 1h-3v-2h-3l1 2 1 3 5 5 1 2 2 3v2l3 3 5 4h2v5l-1 2-1 4-3 4v1l-2 2 1 1 1 1-2 3 2 2v2l-2 1-2 1-1 1h1v2l-1 1v1l1 2-2 1-11-1-7-2h-3l-7-2-2-1-2-2v1l2 2-1 2-1 2-2 2 1 3 1 2v2l-1 1v5l1 2-3 5v2l-2 1v2h-1v2h-2l-1 1-2 1h-1l-3 1-5-2-4-4-1-1 1-2h1l1-1 2-1 1-1v-2h-1l-1-4-2-1h-2l-2 2v3l-1 1-2-1v-3h1v-2h-2l-1-2v-3l-1-3 1-2h1l2-3 1-2-1-1 1-1h2l-1 1v2l2 3-1 3-2-1v1l1 1 4-1 2-1h2l1-1h2v-1l2-1 2-1h3l5-1 1-1-1-2 1-2 2-1h3v-1l-2-7v-4l3-3 3-1h2l-1-1v-1l-1-1-1-2 1-1v-4l-1-1v-6l1-1v-1l2-2v-1l3-3 1-2-1-1-1-2v-2l1-1v-1l-1-5-2-3v-5l-2-1-1-2-3-2-1-2-1-1 2-5-1-2-1-2v-3l3-5 2-2 1-5 1-2v-2l-1-1v-4l1-1 1-2-1-3v-4l2-3v-3l4-3 1-1 1-1 1-2 3-5 4-6 2-4h3l2-1 1-1v-1l2-2 2-3 3 2-1 2v4l2 7v1l-1 4 1 1v1l1-1h2l2-1 1-1 1-2 1-1 1-1h2l1-3 2-1 1-4v-5l2-2v-1l1-1h1l2-1 1-3 1-4 2-1v-2l-2-3-2-3-4 1-2 2-1 3h-5v-2l-1-1v-3l-1-2h-1l-1-1h-4l-1-2-1-1-2-1v2l-1 2-1 3v2l1 1-1 1v1l-2 3v2l-1 1-1 2-1 2h-5l-4 2-2 2-2 1-1 1v3l-1 5-5 5-1 1-1 4-1 2-1 2-4 1-1 2-2 1v2l-2 2-1 3-2 1-2 1-2 3-3 2 2 4v8l1 2-7 3v2l-1 1 2 1 3 3 1 3-1 1-1 1v1l-2 4-1 2 1 1-1 2 1 1v1l2 2v1l-1 1v2l-2 4 3 3 2 2h1l1 2-3 2-1 3v9l1 2v1l1 1v3l1 1v4l-3 1-2 1h-3l-2 3-2 1v7l-1 2-3 2-5 3-4 4-1 1h-4l-2-5-3-4-3-3-2-2h-2v-1l-3-2 1-4-1-2-4-6v2l-4 2-1 2-2 1-11-1-1-2-2-4-7-7-3-11h-3l-2 1-3 1-4 4-2 4-2 5-1 4v3l-3 4-2 4-4 5-2 5-2 8h-2l-5-2-4 1 1 2v2h-2l-1 1h3l-2 2v2l2 1 3 3 2 1 1 3 6-8 8 3 5 3 3 6 1 3 1 7 1 5v4l1 9 2 5v11l1 3 3 1-1 4 1 3h-4l-4-1-8-2-4-2-5-1-2-3h-5l-5 3-5 2-4 2-5 4-4 8-2 5-4 8-3 8-5 6-5 2h-3l1 2 6 4 1 5-2 2h-2l-1 4-3 4 1 3 7 5-1 3 1 2 3 3 2 2 3-1 4-1 4 3 4 2 2 5-1 4-3 3-3 3-2 3-3 2v5l-5 8-2 3v3l-1 4 1 4-1 3 2 3 1 8 1 6v4l3 3 1 4v3l-1 3v3l-2 4v5l-5 2-3 4-3 1-2 2v2l-3 1-13 4-2-1-1 2 1 2 4 1 6 4 1 4-1 1v4l-2 4 1 2-1 2v3l1 2 4 3 2 6v6h5l5 1 5 3 1 4-3 6-5 3-4 7 2 3v2h1l5 3 2 4v3l2 2v3l-2 4-5 2-2 4-1 4v2l-1 3-3 4v2l-3 5-1 6v3l2 2 2-1 1-3 4-3 5 3 4 3-1 1-1 3 1 2 2-2 10-7 5-3 5-2 3-3 2-4 2-5v-5l2-5v-6l2-1 2-3 2-5 1-3-1-4v-5l4-3v-1l-2-4 2-4 4-7 6-7 7-6 9-4h13l4 4v1l-2 6v3l2 3 1 2h2v2h2l4-1 3 3h2l5-1 3-2 2-4h4l3-4 1-3h2l2-3-1-3-3-2-1-4-3-2v-3l3-6 5-6h2l2 1h3l1 2h2v-1l2-1v-1l-1-2-1-1-1-4v-3l1-1-2-3-3 1-3-2-4-2-2-4-1-4h-5l-5 3h-4l-5-7-2-5h3v-2l-1-2-1 1 1 2-3 2-4-1-4-6-2-6v-8l1-12 3-14 4-4v-4l-1-3 2-4 4-9 7-10 7-9 8-6 5-3 3-5 3-16 4-17 9-24 13-21 19-24 4-4 3-1v2h2l1-4 1-2v-4l2-1 2-1v-2l2-1 3-1 1-2-1-2 1-2 1 1h3l2-2 2-1 3 1v-2l-1-2v-3l-1 1-3-1-1-1v-7l8-13 2-2 1 1 1-2-1-4 4-6 6-2h3v3l2-1v-1l3-6-2-2v-3l-2-4 1-1 2-1 2-2 1-3 3-2 2-2 2-3v-3l-1-3zM296 600l-1 3-4 3-8 4h-3l-1 1 1 1 1 2 2 3 2 5-1 3v3l-6 3h-1l-1 1v1l-3 3h-3l-1 1h-2l-2 2-4 1h-2l-2-2h-2l-1-2 2-5 1-4v-3l-1-3-1-3 2-1-1-2 2-2v-3h3l1-5 5-3 5-5v-4l2-3 3-2 3-2 2-1v1h4l4 3 3-1 2 2 1 5v5z"/>
  <path id="zona-0100" class="st0" d="M273 334v2l2 2 1 3 1 3v2l4 11 7 7 2 3 1 2 11 1 1-1 2-1v-1l3-2 1-2 4 6v7l3 1v1l2 1 2 1 3 3 2 5 2 5 1-1h5l3-4 6-4 3-2 1-2v-6l2-2 2-2 3-1h2l2-2v-7l-1-1v-2l-1-1v-9l1-4 2-2v-1l-1-1-2-1-3-4 2-3v-3l1-1-1-1-1-2v-1h-1l1-2-1-1 1-3 2-3v-1l1-2v-4l-3-3h-2l1-2v-2l7-3-1-2v-8l-2-3 3-3 2-2 2-2 2-1 1-3 2-2v-1l2-2 1-2 4-1 1-1 1-2 1-4 1-2 5-4 1-5v-3l1-2h2l2-2 4-2h2l3-1v-1h1l1-2 1-2v-2l2-2v-2l1-1-2-1v-2l2-2 1-3v-2l2 1 1 1 1 3 3-1v1h3l1 2v4l1 2 2 1 2-1 2-2 2-2 3-1 1-1 1 4 3 2v8l1 1v3l-1 1v2l-2 1-2 1v1l2 3-1 3 1 2-1 2h-5l-2 3-4 2 1 2-2 3h-3l-4-2 1 1-4 3-6 2-2 6-1 3-6 2-5 1 1 2 2 2 1 1 1 3 2 2 1 3 1 2-1 2h1v2l2 1h1l2 1 2 3 1 3 5 5-1 1h-2v4l-2-1 2 3v3l-4 2v2l3-2 1 2h18l-2-5v-14l2-9 5-17 7-15 11-23 11-17 16-23 16-18 9-8h4l2 2 3-2h2l-1-3-1-2 2-5 2-4v-4l-2-2v-4l-3-2 1-3 2-7 4-10v-2l2-3 2-3h1l4-1 5-2 3 1h1l2-3-1-2 1-3 3-6-2-1-3-3v-2l-2-2-1-2-2-3h-1l-2 3-1 3-1 4-1 1-1 1-1 3v3l-2 1h-7l-5-2-13-7-9-10-9-13-6-18 1-5 1-3-5-10-4 1-2-1h-2l-3-8-1-11v-5l2-2 1-2 1-5 1-4-3-3h-3l-2-2-2-2-4 2-1 5 1 3-1 3-1 2h-7l-5-2-4-2h-2l-2 3-2 4-2 3 1 2 3 5 6 3 2 4-2 5v4l1 5 1 8-3 6-9 7-13 5-10 4-19 1h-9l-8-2-1 2h-2l-2 1-1 1-2 1-1 1v2l-1 6-3 3-1 1-7 2h-8l-11-2-10-3-5-2-9-5-4-2-2 1-1 1-1 4-1 4v3l-4 3v3l-2 2v2l-1 2-5 1-11 2-6 4-5 8-4 3-4 5h3l3-4 3-2 1-1v-1l1-3 3-1 5 1v2l8-1 4-3 4 1 3 2 2 4v2l3 3 2 4-2 3-1 3 2 5h-1l-4-1-5-3-3 1 1 3-1 1v5l-1 1-2 1-2 2h-2v-1l-2-1h-1l1 2-1 3v3l-2 1-3 1-2 2-1 3v5l-1 3 1 2-2 2v1l2 2v2l-2 1v2h1l1-2h1v1h2l2 1 1-1 1-1 5 2 3 2 1 1v1l1 1 4 3v14l1 2 2 2 2 2 3 4v1l2 1 2 3 1 5-1 4-2 3-2 1h-5l-2 2-1 2-1 1-1 1-4 2v2l2 2 1 3h1v4l-1 3-2 2v2l-2 2-4 3v2l2 2h1l5 4 4 4 2 2 2-1 4-1 4 1 5 1 4 2 2 2-1 1-1 2h-1l-1 4-2 3-3 1-1 2-2 3-1 1h-1l-1 2-2 3-2 2-2-1-2-1h-2v3l1 1 2 3h2l1 1 1 1 1 1 1 1 2 3v4l-1 2v1l-1 2-2 1v-1l-2-1h-2l-2 1h-5v-2h-2z"/>
  <path id="zona-0012" class="st0" d="M198 388v-4l2-2h1l3-2 2-3v-2h2l1-2v-2h-1l-1-3-2-3-2-1-3-3-4-3-2-5 1-2 1-4h-1l1-1 2-2-6-3-5-1-9-2-9-2-9-4-4 9v2l2 2-4 10-5 5 1 2v9l1 1 1 1-1 2v5l-1 4h4l2 1v2l1-1v-1h2l1-1 2 2v2l1 1v1l1 2 1 2-1 2h-2l-1 2 1 1 1 2v1h-1v2h-2l1 2 4 1h1l1 2 3 1 2-2h2l2 2v2l1 1h1l-1-1 2-2 1-1h1v-1l-1-2-1-1 2-2 3-1 1 2 1-2v-1l4-2 4-1 1 2 1-1 1-2-1-1v-1l2-2 1-1 1-1 2-1-1-1-1-1h-2zm39 4l4-1 5 2 2 1 1-9 2-5 5-5 1-3 3-5 1-3 1-4 1-4 3-5 4-4h2l3-1h3l-1-2-1-3-1-3-2-2v-2h-5l-5-2h-4l-2-3-1 4-3 1-2 2-4 3-1 4-1 6-1 2-3 2-4 2-1-1-1 2-7 2h-2l-2 2-4 1-3 1-1 2v2l-1 1v3h2l1 2 1 1v4l1 1 4 3 3 1 3 2 3 2 1 2 2 2z"/>
</svg>
